<?xml version="1.0" standalone="no"?><!DOCTYPE svg PUBLIC "-//W3C//DTD SVG 1.1//EN" "http://www.w3.org/Graphics/SVG/1.1/DTD/svg11.dtd"><svg t="1676122945612" class="icon" viewBox="0 0 1027 1024" version="1.1" xmlns="http://www.w3.org/2000/svg" p-id="10472" xmlns:xlink="http://www.w3.org/1999/xlink" width="200.5859375" height="200"><path d="M821.902222 660.764444H573.297778a14.222222 14.222222 0 0 1 0-28.444444h248.604444a14.222222 14.222222 0 0 1 0 28.444444zM821.902222 758.328889H573.297778a14.222222 14.222222 0 0 1 0-28.444445h248.604444a14.222222 14.222222 0 0 1 0 28.444445zM821.902222 856.035556H573.297778a14.222222 14.222222 0 1 1 0-28.444445h248.604444a14.222222 14.222222 0 0 1 0 28.444445zM493.653333 571.448889A200.391111 200.391111 0 1 1 694.044444 371.057778a200.675556 200.675556 0 0 1-200.391111 200.391111z m0-372.337778A171.946667 171.946667 0 1 0 665.6 371.057778 172.088889 172.088889 0 0 0 493.653333 199.111111z" fill="#cdcdcd" p-id="10473"></path><path d="M193.991111 881.777778a14.222222 14.222222 0 0 1-14.222222-14.222222c0-172.657778 150.755556-323.982222 322.56-323.982223a14.222222 14.222222 0 0 1 0 28.444445c-156.444444 0-294.115556 138.097778-294.115556 295.537778a14.222222 14.222222 0 0 1-14.222222 14.222222z" fill="#cdcdcd" p-id="10474"></path></svg>