<?xml version="1.0" standalone="no"?><!DOCTYPE svg PUBLIC "-//W3C//DTD SVG 1.1//EN" "http://www.w3.org/Graphics/SVG/1.1/DTD/svg11.dtd"><svg t="1676174144418" class="icon" viewBox="0 0 1024 1024" version="1.1" xmlns="http://www.w3.org/2000/svg" p-id="2691" xmlns:xlink="http://www.w3.org/1999/xlink" width="200" height="200"><path d="M867.070366 806.431799c55.782467-43.961234 90.918709-107.727537 90.918709-178.635493 0-132.683928-122.893958-240.247736-274.39751-240.247736-151.503553 0-274.39751 107.563808-274.39751 240.247736 0 132.704394 122.812093 240.267179 274.356578 240.267179 43.838438 0 85.295642-9.010211 122.073266-25.01779l72.693626 40.862663c1.807159 2.771113 4.967128 4.618181 8.497535 4.618181 5.664 0 10.178827-4.577249 10.178827-10.220782 0-2.133593-0.656963-4.145413-1.806135-5.786797l2.052752-3.571339L867.070366 806.431799zM592.097758 581.823252c-22.452361 0-40.636512-18.327414-40.636512-40.903595s18.184151-40.903595 40.636512-40.903595c22.410406 0 40.636512 18.327414 40.636512 40.903595S614.509187 581.823252 592.097758 581.823252zM785.182334 581.823252c-22.452361 0-40.636512-18.327414-40.636512-40.903595s18.184151-40.903595 40.636512-40.903595 40.636512 18.327414 40.636512 40.903595S807.634696 581.823252 785.182334 581.823252z" p-id="2692" fill="#bfbfbf"></path><path d="M383.743406 131.949194c-176.788425 0-320.123948 125.890198-320.123948 281.150308 0 91.165326 49.378617 172.171268 125.973086 223.561705l-30.703279 80.287581c-2.298346 1.888-3.816932 4.740978-3.816932 7.983835 0 5.644557 4.556783 10.220782 10.17985 10.220782 3.28379 0 6.198166-1.559519 8.004301-3.961218l88.661296-57.999972c37.59934 13.586436 78.68713 21.098527 121.868605 21.098527 4.88424 0 9.809413-0.081864 14.653745-0.287549-6.239098-21.138436-9.604752-43.304272-9.604752-66.166979 0-143.992485 131.965567-260.708743 294.716278-260.708743 5.418406 0 10.79588 0.122797 16.131399 0.369414C674.889369 233.929844 542.841937 131.949194 383.743406 131.949194zM266.883885 367.127472c-22.452361 0-40.636512-18.327414-40.636512-40.903595s18.184151-40.903595 40.636512-40.903595c22.452361 0 40.677445 18.327414 40.677445 40.903595S289.336246 367.127472 266.883885 367.127472zM510.824733 367.127472c-22.493294 0-40.677445-18.327414-40.677445-40.903595s18.184151-40.903595 40.677445-40.903595c22.411429 0 40.636512 18.327414 40.636512 40.903595S533.237185 367.127472 510.824733 367.127472z" p-id="2693" fill="#bfbfbf"></path></svg>