<?xml version="1.0" standalone="no"?><!DOCTYPE svg PUBLIC "-//W3C//DTD SVG 1.1//EN" "http://www.w3.org/Graphics/SVG/1.1/DTD/svg11.dtd"><svg t="1681344381208" class="icon" viewBox="0 0 1024 1024" version="1.1" xmlns="http://www.w3.org/2000/svg" p-id="3501" xmlns:xlink="http://www.w3.org/1999/xlink" width="100" height="100"><path d="M945.453 689.878l-131.829-19.156-58.226-117.979-0.408-0.826c-2.281-4.622-6.955-7.293-11.911-7.93-0.141-0.019-0.283-0.026-0.425-0.042a18.335 18.335 0 0 0-1.123-0.092c-0.263-0.012-0.525-0.007-0.788-0.007s-0.525-0.005-0.788 0.007c-0.376 0.016-0.749 0.053-1.123 0.092-0.142 0.016-0.284 0.023-0.425 0.042-4.956 0.637-9.63 3.308-11.911 7.93l-58.635 118.806-130.916 19.022-0.912 0.133c-12.623 1.834-15.369 19.692-7.28 27.577l94.167 91.791-21.738 126.741-0.155 0.907c-1.024 5.969-0.23 11.58 4.243 16.054 5.418 5.419 13.388 6.054 19.995 2.58l115.479-60.71L855.407 955.1l0.815 0.429c5.286 2.779 11.389 3.086 16.656 0 6.853-4.014 8.852-11.232 7.582-18.634l-21.894-127.65c31.169-30.382 62.338-60.765 93.508-91.146l0.659-0.644c8.089-7.885 5.343-25.743-7.28-27.577zM829.896 791.111c-7.854 7.656-4.673 18.04-3.057 27.462l6.803 39.66 9.082 52.949-92.838-48.808c-10.396-5.466-18.287 0-27.139 4.653l-35.617 18.725-48.369 25.429 17.575-102.466c1.161-6.771 0.177-12.804-4.884-17.737l-7.025-6.848-28.814-28.088-39.85-38.843 106.551-15.482c9.24-1.343 12.327-10.865 15.86-18.024l17.983-36.437 24.585-49.815 47.248 95.735c4.432 8.979 13.309 8.851 21.646 10.062l40.211 5.843 55.875 8.119c-25.275 24.637-50.55 49.275-75.826 73.911z" p-id="3502" fill="#bfbfbf"></path><path d="M479 893.514H163.112c-15.779 0-19.088-11.404-19.088-15.792v-765.49c0-5.564 5.024-15.709 15.5-15.709s694.962-0.126 705.219-0.126 14.4 8.372 14.4 14.238l0.029 450.611c0 8.994 7.506 16.5 16.5 16.5s16.5-7.506 16.5-16.5V113.691c0-16.642-7.154-31.122-20.447-41.116-12.164-9.144-25.964-9.053-40.108-9.053h-690.93c-14.416 0-28.784 5.788-38.03 17.108-7.786 9.532-11.633 20.747-11.633 33.035v763.792c0 18.321 10.354 36.11 27.115 44.028 15.061 7.114 33.404 5.029 49.662 5.029h291.2c8.994 0 16.5-7.506 16.5-16.5s-7.507-16.5-16.501-16.5z" p-id="3503" fill="#bfbfbf"></path><path d="M784.649 255.605c0-8.995-7.506-16.5-16.5-16.5h-512.1c-8.995 0-16.5 7.505-16.5 16.5s7.505 16.5 16.5 16.5h512.1c8.995 0 16.5-7.505 16.5-16.5zM763.5 485.092c0-8.995-7.506-16.5-16.5-16.5H256.05c-8.995 0-16.5 7.505-16.5 16.5s7.505 16.5 16.5 16.5H747c8.994 0 16.5-7.506 16.5-16.5zM256.05 694.439c-8.995 0-16.5 7.506-16.5 16.5s7.505 16.5 16.5 16.5H459c8.994 0 16.5-7.506 16.5-16.5s-7.506-16.5-16.5-16.5H256.05z" p-id="3504" fill="#bfbfbf"></path></svg>