<?xml version="1.0" standalone="no"?><!DOCTYPE svg PUBLIC "-//W3C//DTD SVG 1.1//EN" "http://www.w3.org/Graphics/SVG/1.1/DTD/svg11.dtd"><svg t="1681284028043" class="icon" viewBox="0 0 1024 1024" version="1.1" xmlns="http://www.w3.org/2000/svg" p-id="4393" xmlns:xlink="http://www.w3.org/1999/xlink" width="100" height="100"><path d="M786.046928 0.082867c-6.061942 0.163285-12.348401 0.571496-18.491985 1.285866-24.492695 2.775839-49.760993 9.490919-73.988351 18.491986C645.091466 37.88326 600.433118 65.151795 571.735843 93.849069c-31.024081 31.024081-46.250373 68.885706-45.923804 107.788271 0.244927 33.657046 12.838255 67.62025 31.248597 100.134303L510.504104 348.981314a20.492222 20.492222 0 0 0-7.102881 20.492221c1.75531 7.572325 7.75602 13.552625 15.307934 15.307935 7.653967 1.75531 15.552862-1.020529 20.492222-7.102882l57.41496-57.394549a20.390169 20.390169 0 0 0 2.551323-25.513225c-20.900433-32.289537-32.289537-64.191273-32.534464-93.133474-0.244927-28.942202 9.735846-55.006512 33.79992-79.090996 22.329174-22.308763 64.4362-48.230199 107.808681-64.415789a239.803899 239.803899 0 0 1 77.151991-14.675207l-77.151991 76.539674a9.51133 9.51133 0 0 0-0.653139 1.285866c-20.961665 23.921199-21.920962 60.354084 0.653139 82.907774L816.662797 312.650482l0.632728 0.632728c23.921199 20.961665 60.354084 21.920962 82.928185-0.632728l77.172401-77.172401a237.232166 237.232166 0 0 1-14.675206 77.805129c-16.103947 43.127555-42.004973 84.744726-64.415789 107.155543-24.084484 24.084484-49.679351 32.922265-78.458268 32.534463-28.778917-0.408212-61.395023-11.715673-95.031658-31.901736a20.41058 20.41058 0 0 0-24.880497 3.204461l-32.514053 32.514054a20.533043 20.533043 0 0 0 28.697275 29.350413l22.961902-22.961902c33.167192 17.757204 66.497668 30.126015 100.134303 30.615869 38.575995 0.551086 76.7846-13.634267 107.78827-44.658348 28.636043-28.615633 55.965809-72.947411 73.988351-121.17761 18.022542-48.25061 27.513461-100.542515 12.756612-144.792652a20.43099 20.43099 0 0 0-14.736438-13.226055A20.512632 20.512632 0 0 0 979.947434 175.491387l-108.441409 107.788271c-5.714962 5.735373-17.532688 6.531385-26.125542 0-0.408212-0.306159-0.898065-0.306159-1.285867-0.632728l-107.155542-107.155543c-6.061942-6.061942-6.388511-18.736912 1.265456-27.431818l107.155542-107.155543c5.021003-4.93936 7.102882-12.103474 5.592499-19.043071A20.43099 20.43099 0 0 0 837.685694 7.104106c-16.328464-5.572088-33.554993-7.572325-51.659176-7.021239zM68.492594 2.001461c-4.306632 0.632728-8.368338 2.632965-11.491156 5.735373l-51.026449 51.026449A20.41058 20.41058 0 0 0 2.790938 83.64378l86.112236 149.262568a20.41058 20.41058 0 0 0 20.410579 9.552151l44.637937-7.021239L430.780381 512.26595l-10.20529 10.20529a57.700708 57.700708 0 0 0 0 81.642318l14.022068 14.675206c16.267232 16.267232 38.678048 16.18559 58.680416 9.552152l34.453059 33.82033c-2.326806 27.493051 5.735373 54.843227 25.513224 74.621079L801.96718 986.179196a128.954042 128.954042 0 0 0 182.42976 0v-0.653138c48.373074-50.863164 49.026212-132.729999 0-181.776622L735.020479 555.005703c-20.573864-20.573864-47.924041-26.941965-74.621078-25.513224l-33.820331-34.453058c6.633438-20.002368 6.715081-42.413184-9.552151-58.680416l-14.675207-14.022069a57.863993 57.863993 0 0 0-40.821159-17.226529c-14.838491 0-29.59534 5.9803-40.821159 17.226529l-10.20529 10.20529L233.675414 155.693125l7.02124-44.637937a20.41058 20.41058 0 0 0-9.572562-20.41058L81.881934 4.552784A19.981957 19.981957 0 0 0 70.390778 2.001461h-1.898184z m7.021239 45.923804l123.075795 70.804301-6.368101 41.453887c-0.877655 6.306869 1.285867 12.67497 5.735373 17.226529L481.82724 461.239501 459.477656 483.568675 175.648137 199.718745a20.594275 20.594275 0 0 0-17.22653-5.714962l-41.453887 6.368101L46.16342 77.275679zM561.530553 446.564294c4.551559 0 9.082708 1.428741 12.123885 4.469917l14.022068 14.675207a16.940781 16.940781 0 0 1 1.285866 22.961902 20.41058 20.41058 0 0 0 1.265456 28.064547l46.576943 46.556532c4.694433 4.694433 11.307461 6.857955 17.859257 5.735373 18.879786-3.102408 38.657638 1.673668 51.638766 14.675206l248.764143 249.396872c32.534464 32.514053 32.861033 88.806432 0 123.728933-35.310303 35.310303-88.418631 35.310303-123.728933 0L581.941133 708.08505c-13.552625-13.552625-18.900197-32.779391-14.675207-49.760993a20.328937 20.328937 0 0 0-5.735373-19.757441l-46.556532-46.576942a20.41058 20.41058 0 0 0-28.064547-1.265456 16.940781 16.940781 0 0 1-22.961902-1.285867L449.272366 575.416283c-6.061942-6.061942-6.061942-18.165416 0-24.247769L549.406669 451.034211c3.041176-3.020766 7.572325-4.469917 12.123884-4.469917z m-200.289017 61.231739a20.512632 20.512632 0 0 0-12.103473 6.388511l-96.950253 96.950253c-13.879194-2.714607-27.513461-5.102645-41.453887-5.102645-115.054437 0-208.596123 93.521275-208.596123 208.555302C2.15821 929.662301 95.699896 1022.530438 210.754333 1022.530438 325.747538 1022.530438 418.656497 929.662301 418.656497 814.587454c0-14.899723-3.347335-29.656572-7.02124-44.00521l70.171573-70.151161a20.533043 20.533043 0 0 0-28.717686-29.350414l-77.15199 77.82554a20.533043 20.533043 0 0 0-5.102645 21.676035c5.102645 13.552625 7.000829 27.186892 7.000828 44.025621A166.060475 166.060475 0 0 1 210.713512 981.709279c-93.113064 0-167.734143-73.988351-167.734142-167.121825a167.142236 167.142236 0 0 1 167.754553-167.734143c14.573154 0 29.24836 2.061469 44.005209 5.735373 6.939597 1.510383 14.185353-0.632728 19.124713-5.735373L377.835337 542.881819a20.451401 20.451401 0 0 0-14.675206-35.085786h-1.898184z m286.401252 112.258187L618.271964 649.425044l244.926955 244.926955 29.350413-29.350414zM232.409958 695.961166a20.533043 20.533043 0 0 0-3.18405 0.632728L133.5207 723.392985a20.369758 20.369758 0 0 0-14.022068 14.022068L92.699541 833.12026a20.349348 20.349348 0 0 0 5.102645 20.41058l71.437029 71.437028c5.184287 5.102645 12.756612 7.082471 19.777851 5.102645l98.236119-26.799091a20.41058 20.41058 0 0 0 14.654797-14.654796l24.247768-95.684797a20.349348 20.349348 0 0 0-5.102645-19.777852l-71.437028-71.437028a20.594275 20.594275 0 0 0-17.226529-5.735373z m-3.837189 43.372481l54.863638 54.863638-18.491985 73.335212-74.621079 19.777852-54.863638-54.863638 19.777852-73.335212z" p-id="4394" fill="#bfbfbf"></path></svg>